<svg width="48" height="48" viewBox="0 0 48 48" fill="none" xmlns="http://www.w3.org/2000/svg">
<circle cx="24" cy="24" r="23.5" stroke="black" stroke-opacity="0.86"/>
<path d="M30.7083 14.5C32.8024 14.5 34.5 16.1976 34.5 18.2917V31.7083C34.5 33.8024 32.8024 35.5 30.7083 35.5H17.2917C15.1976 35.5 13.5 33.8024 13.5 31.7083V18.2917C13.5 16.1976 15.1976 14.5 17.2917 14.5H30.7083ZM32.75 20.9167H15.25V31.7083C15.25 32.8359 16.1641 33.75 17.2917 33.75H30.7083C31.8359 33.75 32.75 32.8359 32.75 31.7083V20.9167ZM19.0417 27.9167C19.8471 27.9167 20.5 28.5695 20.5 29.375C20.5 30.1805 19.8471 30.8333 19.0417 30.8333C18.2362 30.8333 17.5833 30.1805 17.5833 29.375C17.5833 28.5695 18.2362 27.9167 19.0417 27.9167ZM24 27.9167C24.8055 27.9167 25.4583 28.5695 25.4583 29.375C25.4583 30.1805 24.8055 30.8333 24 30.8333C23.1945 30.8333 22.5417 30.1805 22.5417 29.375C22.5417 28.5695 23.1945 27.9167 24 27.9167ZM19.0417 23.25C19.8471 23.25 20.5 23.9029 20.5 24.7083C20.5 25.5138 19.8471 26.1667 19.0417 26.1667C18.2362 26.1667 17.5833 25.5138 17.5833 24.7083C17.5833 23.9029 18.2362 23.25 19.0417 23.25ZM24 23.25C24.8055 23.25 25.4583 23.9029 25.4583 24.7083C25.4583 25.5138 24.8055 26.1667 24 26.1667C23.1945 26.1667 22.5417 25.5138 22.5417 24.7083C22.5417 23.9029 23.1945 23.25 24 23.25ZM28.9583 23.25C29.7638 23.25 30.4167 23.9029 30.4167 24.7083C30.4167 25.5138 29.7638 26.1667 28.9583 26.1667C28.1529 26.1667 27.5 25.5138 27.5 24.7083C27.5 23.9029 28.1529 23.25 28.9583 23.25ZM30.7083 16.25H17.2917C16.1641 16.25 15.25 17.1641 15.25 18.2917V19.1667H32.75V18.2917C32.75 17.1641 31.8359 16.25 30.7083 16.25Z" fill="black" fill-opacity="0.86"/>
</svg>
