<svg width="48" height="48" viewBox="0 0 48 48" fill="none" xmlns="http://www.w3.org/2000/svg">
<circle cx="24" cy="24" r="23.5" stroke="black" stroke-opacity="0.86"/>
<path d="M24.2671 17.5829L25.3318 19.7443L27.7163 20.0889C27.9605 20.1242 28.0582 20.4243 27.8814 20.5965L26.1567 22.277L26.5639 24.6517C26.6056 24.8948 26.3503 25.0802 26.132 24.9652L24.0003 23.8424L21.8684 24.9652C21.6501 25.0802 21.3947 24.8947 21.4366 24.6514L21.8458 22.277L20.1191 20.5966C19.9422 20.4245 20.0398 20.1242 20.2841 20.0889L22.6686 19.7443L23.7333 17.5829C23.8424 17.3615 24.1581 17.3615 24.2671 17.5829ZM32.1668 21.5002C32.1668 16.9898 28.5105 13.3335 24.0002 13.3335C19.4898 13.3335 15.8335 16.9898 15.8335 21.5002C15.8335 23.725 16.7231 25.742 18.1661 27.2148L18.1678 35.7921L18.1759 35.914C18.261 36.547 19.001 36.8916 19.5466 36.5075L23.9991 33.3718L28.4539 36.5076L28.5583 36.5712C29.1249 36.8659 29.8326 36.4593 29.8326 35.7921L29.8342 27.2148C31.2771 25.742 32.1668 23.725 32.1668 21.5002ZM28.0828 28.5747L28.0826 34.1061L24.5025 31.5862L24.3849 31.5163C24.1012 31.3768 23.7595 31.4001 23.4951 31.5863L19.9178 34.1056L19.9175 28.5747C21.1186 29.2692 22.5129 29.6668 24.0002 29.6668C25.4874 29.6668 26.8817 29.2692 28.0828 28.5747ZM17.5835 21.5002C17.5835 17.9563 20.4563 15.0835 24.0002 15.0835C27.544 15.0835 30.4168 17.9563 30.4168 21.5002C30.4168 25.044 27.544 27.9168 24.0002 27.9168C20.4563 27.9168 17.5835 25.044 17.5835 21.5002Z" fill="black" fill-opacity="0.86"/>
</svg>
