<svg width="28" height="28" viewBox="0 0 28 28" fill="none" xmlns="http://www.w3.org/2000/svg">
<path d="M20.7083 3.5C22.8024 3.5 24.5 5.19758 24.5 7.29167V20.7083C24.5 22.8024 22.8024 24.5 20.7083 24.5H7.29167C5.19758 24.5 3.5 22.8024 3.5 20.7083V7.29167C3.5 5.19758 5.19758 3.5 7.29167 3.5H20.7083ZM22.75 9.91667H5.25V20.7083C5.25 21.8359 6.16408 22.75 7.29167 22.75H20.7083C21.8359 22.75 22.75 21.8359 22.75 20.7083V9.91667ZM9.04167 16.9167C9.84709 16.9167 10.5 17.5695 10.5 18.375C10.5 19.1805 9.84709 19.8333 9.04167 19.8333C8.23625 19.8333 7.58333 19.1805 7.58333 18.375C7.58333 17.5695 8.23625 16.9167 9.04167 16.9167ZM14 16.9167C14.8055 16.9167 15.4583 17.5695 15.4583 18.375C15.4583 19.1805 14.8055 19.8333 14 19.8333C13.1945 19.8333 12.5417 19.1805 12.5417 18.375C12.5417 17.5695 13.1945 16.9167 14 16.9167ZM9.04167 12.25C9.84709 12.25 10.5 12.9029 10.5 13.7083C10.5 14.5138 9.84709 15.1667 9.04167 15.1667C8.23625 15.1667 7.58333 14.5138 7.58333 13.7083C7.58333 12.9029 8.23625 12.25 9.04167 12.25ZM14 12.25C14.8055 12.25 15.4583 12.9029 15.4583 13.7083C15.4583 14.5138 14.8055 15.1667 14 15.1667C13.1945 15.1667 12.5417 14.5138 12.5417 13.7083C12.5417 12.9029 13.1945 12.25 14 12.25ZM18.9583 12.25C19.7638 12.25 20.4167 12.9029 20.4167 13.7083C20.4167 14.5138 19.7638 15.1667 18.9583 15.1667C18.1529 15.1667 17.5 14.5138 17.5 13.7083C17.5 12.9029 18.1529 12.25 18.9583 12.25ZM20.7083 5.25H7.29167C6.16408 5.25 5.25 6.16408 5.25 7.29167V8.16667H22.75V7.29167C22.75 6.16408 21.8359 5.25 20.7083 5.25Z" fill="black" fill-opacity="0.86"/>
</svg>
