<svg width="22" height="22" viewBox="0 0 22 22" fill="none" xmlns="http://www.w3.org/2000/svg">
<path d="M9.22778 0.597592C9.72371 0.211662 10.3514 0 11 0C11.6486 0 12.2763 0.211662 12.7722 0.597592L21.0222 7.02114C21.6419 7.50414 22 8.21398 22 8.96219V20.0251C22 20.5489 21.7747 21.0512 21.3735 21.4216C20.9724 21.7919 20.4284 22 19.8611 22H15.5833C15.0161 22 14.472 21.7919 14.0709 21.4216C13.6698 21.0512 13.4444 20.5489 13.4444 20.0251V13.8182C13.4444 13.7434 13.4123 13.6716 13.3549 13.6187C13.2976 13.5658 13.2199 13.5361 13.1389 13.5361H8.86111C8.78007 13.5361 8.70235 13.5658 8.64505 13.6187C8.58775 13.6716 8.55556 13.7434 8.55556 13.8182V20.0251C8.55556 20.5489 8.33021 21.0512 7.92909 21.4216C7.52797 21.7919 6.98394 22 6.41667 22H2.13889C1.85801 22 1.57987 21.9489 1.32037 21.8497C1.06087 21.7504 0.82508 21.6049 0.626466 21.4216C0.427852 21.2382 0.270303 21.0205 0.162813 20.7809C0.0553241 20.5412 0 20.2844 0 20.0251V8.96219C0 8.21398 0.358111 7.50414 0.977778 7.02114L9.22778 0.597592ZM11.5903 1.89201C11.4251 1.76356 11.216 1.69313 11 1.69313C10.784 1.69313 10.5749 1.76356 10.4097 1.89201L2.15967 8.31442C2.05757 8.39377 1.97548 8.49275 1.91911 8.60445C1.86274 8.71614 1.83347 8.83784 1.83333 8.96106V20.024C1.83333 20.1797 1.97022 20.3061 2.13889 20.3061H6.41667C6.4977 20.3061 6.57542 20.2764 6.63273 20.2235C6.69003 20.1705 6.72222 20.0988 6.72222 20.024V13.8171C6.72222 12.7258 7.68044 11.8422 8.86111 11.8422H13.1389C14.3196 11.8422 15.2778 12.7258 15.2778 13.8171V20.024C15.2778 20.1797 15.4147 20.3061 15.5833 20.3061H19.8611C19.9422 20.3061 20.0199 20.2764 20.0772 20.2235C20.1345 20.1705 20.1667 20.0988 20.1667 20.024V8.96219C20.1665 8.83897 20.1373 8.71727 20.0809 8.60557C20.0245 8.49388 19.9424 8.3949 19.8403 8.31555L11.5903 1.89201Z" fill="black"/>
</svg>
