<svg width="22" height="20" viewBox="0 0 22 20" fill="none" xmlns="http://www.w3.org/2000/svg">
<path d="M20.4286 16.8831V6.49351C20.1667 6.81818 19.8843 7.1158 19.5815 7.38636C17.388 9.24423 15.6447 10.7684 14.3516 11.9589C13.9342 12.3467 13.5945 12.6488 13.3326 12.8653C13.0707 13.0817 12.7167 13.3004 12.2706 13.5214C11.8246 13.7423 11.4051 13.8528 11.0123 13.8528H10.9877C10.5949 13.8528 10.1754 13.7423 9.72935 13.5214C9.2833 13.3004 8.92932 13.0817 8.66741 12.8653C8.40551 12.6488 8.06585 12.3467 7.64844 11.9589C6.35528 10.7684 4.61198 9.24423 2.41853 7.38636C2.1157 7.1158 1.83333 6.81818 1.57143 6.49351V16.8831C1.57143 17.0004 1.61031 17.1018 1.68806 17.1875C1.76581 17.2732 1.85789 17.316 1.96429 17.316H20.0357C20.1421 17.316 20.2342 17.2732 20.3119 17.1875C20.3897 17.1018 20.4286 17.0004 20.4286 16.8831ZM20.4286 2.66504V2.3336L20.4224 2.15774L20.3856 1.98864L20.3181 1.86688L20.2076 1.76542L20.0357 1.7316H1.96429C1.85789 1.7316 1.76581 1.77444 1.68806 1.86012C1.61031 1.9458 1.57143 2.04726 1.57143 2.1645C1.57143 3.67965 2.17299 4.96032 3.37612 6.00649C4.95573 7.37734 6.59673 8.80682 8.29911 10.2949C8.34821 10.34 8.49144 10.473 8.72879 10.694C8.96615 10.915 9.15439 11.0841 9.29353 11.2013C9.43266 11.3185 9.61477 11.4606 9.83984 11.6274C10.0649 11.7943 10.2716 11.9183 10.4598 11.9995C10.6481 12.0806 10.824 12.1212 10.9877 12.1212H11.0123C11.176 12.1212 11.3519 12.0806 11.5402 11.9995C11.7284 11.9183 11.9351 11.7943 12.1602 11.6274C12.3852 11.4606 12.5673 11.3185 12.7065 11.2013C12.8456 11.0841 13.0339 10.915 13.2712 10.694C13.5086 10.473 13.6518 10.34 13.7009 10.2949C15.4033 8.80682 17.0443 7.37734 18.6239 6.00649C19.0658 5.61869 19.4771 5.09785 19.8577 4.44399C20.2383 3.79013 20.4286 3.19715 20.4286 2.66504ZM22 2.1645V16.8831C22 17.4784 21.8077 17.9879 21.423 18.4118C21.0383 18.8357 20.5759 19.0476 20.0357 19.0476H1.96429C1.42411 19.0476 0.961682 18.8357 0.577009 18.4118C0.192336 17.9879 0 17.4784 0 16.8831V2.1645C0 1.56926 0.192336 1.0597 0.577009 0.635823C0.961682 0.211941 1.42411 0 1.96429 0H20.0357C20.5759 0 21.0383 0.211941 21.423 0.635823C21.8077 1.0597 22 1.56926 22 2.1645Z" fill="black"/>
</svg>
