<svg width="18" height="24" viewBox="0 0 18 24" fill="none" xmlns="http://www.w3.org/2000/svg">
<path d="M9.26685 4.58289L10.3316 6.74433L12.7161 7.08892C12.9603 7.1242 13.0579 7.4243 12.8812 7.5965L11.1565 9.27703L11.5637 11.6517C11.6053 11.8948 11.3501 12.0802 11.1318 11.9652L9.00004 10.8424L6.86819 11.9652C6.64986 12.0802 6.39445 11.8947 6.43636 11.6514L6.84555 9.27703L5.11887 7.59661C4.94198 7.42447 5.03954 7.12421 5.28383 7.08892L7.6684 6.74433L8.7331 4.58289C8.84219 4.36147 9.15789 4.36147 9.26685 4.58289ZM17.1666 8.50016C17.1666 3.98984 13.5103 0.333496 8.99992 0.333496C4.4896 0.333496 0.833252 3.98984 0.833252 8.50016C0.833252 10.725 1.72291 12.742 3.16585 14.2148L3.16752 22.7921L3.17562 22.914C3.26078 23.547 4.00074 23.8916 4.54634 23.5075L8.99887 20.3718L13.4537 23.5076L13.5581 23.5712C14.1246 23.8659 14.8323 23.4593 14.8323 22.7921L14.834 14.2148C16.2769 12.742 17.1666 10.725 17.1666 8.50016ZM13.0826 15.5747L13.0823 21.1061L9.50229 18.5862L9.38469 18.5163C9.10095 18.3768 8.75924 18.4001 8.49487 18.5863L4.91752 21.1056L4.91726 15.5747C6.11832 16.2692 7.51265 16.6668 8.99992 16.6668C10.4872 16.6668 11.8815 16.2692 13.0826 15.5747ZM2.58325 8.50016C2.58325 4.95633 5.45609 2.0835 8.99992 2.0835C12.5438 2.0835 15.4166 4.95633 15.4166 8.50016C15.4166 12.044 12.5438 14.9168 8.99992 14.9168C5.45609 14.9168 2.58325 12.044 2.58325 8.50016Z" fill="black" fill-opacity="0.86"/>
</svg>
