<svg width="20" height="24" viewBox="0 0 20 24" fill="none" xmlns="http://www.w3.org/2000/svg">
<path d="M18.8889 8.19409C18.8889 3.24785 14.9462 1.21777 10 1.21777C5.05376 1.21777 0.977997 3.24837 0.977997 8.19409C0.977997 10.0094 1.52712 12.5143 2.46676 14.9577C2.63368 15.3919 2.7174 15.8558 2.69764 16.3207C2.69296 16.4304 2.69036 16.5406 2.69036 16.6514C2.69036 20.763 5.93308 22.9387 9.93344 22.9387C13.9338 22.9387 17.1765 20.763 17.1765 16.6514C17.1765 16.5708 17.1755 16.4907 17.1729 16.4106C17.1583 15.9541 17.2353 15.4996 17.3975 15.0727C18.3408 12.5933 18.8889 10.038 18.8889 8.19409Z" stroke="black" stroke-width="1.2" stroke-miterlimit="10"/>
<path d="M9.93343 20.5615C12.0443 20.5615 13.7554 18.8503 13.7554 16.7395C13.7554 14.6286 12.0443 12.9175 9.93343 12.9175C7.8226 12.9175 6.11143 14.6286 6.11143 16.7395C6.11143 18.8503 7.8226 20.5615 9.93343 20.5615Z" stroke="black" stroke-width="1.2" stroke-miterlimit="10"/>
<path d="M14.4281 9.83333H5.57189C5.02603 9.83333 4.58334 9.40014 4.58334 8.86599V6.46734C4.58334 5.9332 5.02603 5.5 5.57189 5.5H14.4281C14.974 5.5 15.4167 5.9332 15.4167 6.46734V8.86599C15.4167 9.40014 14.9744 9.83333 14.4281 9.83333Z" stroke="black" stroke-width="1.2" stroke-miterlimit="10"/>
</svg>
